0
SECTION
2
HEADER
9
$INSUNITS
70
4
9
$ACADVER
1
AC1014
9
$HANDSEED
5
FFFF
0
ENDSEC
0
SECTION
2
TABLES
0
TABLE
2
VPORT
5
8
100
AcDbSymbolTable
0
ENDTAB
0
TABLE
2
LTYPE
5
5
100
AcDbSymbolTable
0
LTYPE
5
14
100
AcDbSymbolTableRecord
100
AcDbLinetypeTableRecord
2
BYBLOCK
70
0
0
LTYPE
5
15
100
AcDbSymbolTableRecord
100
AcDbLinetypeTableRecord
2
BYLAYER
70
0
0
ENDTAB
0
TABLE
2
LAYER
5
2
100
AcDbSymbolTable
70
2
0
LAYER
5
50
100
AcDbSymbolTableRecord
100
AcDbLayerTableRecord
2
0
70
0
6
CONTINUOUS
0
ENDTAB
0
TABLE
2
STYLE
5
3
100
AcDbSymbolTable
70
1
0
STYLE
5
11
100
AcDbSymbolTableRecord
100
AcDbTextStyleTableRecord
2
STANDARD
70
0
0
ENDTAB
0
TABLE
2
VIEW
5
6
100
AcDbSymbolTable
70
0
0
ENDTAB
0
TABLE
2
UCS
5
7
100
AcDbSymbolTable
70
0
0
ENDTAB
0
TABLE
2
APPID
5
9
100
AcDbSymbolTable
70
2
0
APPID
5
12
100
AcDbSymbolTableRecord
100
AcDbRegAppTableRecord
2
ACAD
70
0
0
ENDTAB
0
TABLE
2
DIMSTYLE
5
A
100
AcDbSymbolTable
70
1
0
ENDTAB
0
TABLE
2
BLOCK_RECORD
5
1
100
AcDbSymbolTable
70
1
0
BLOCK_RECORD
5
1F
100
AcDbSymbolTableRecord
100
AcDbBlockTableRecord
2
*MODEL_SPACE
0
BLOCK_RECORD
5
1B
100
AcDbSymbolTableRecord
100
AcDbBlockTableRecord
2
*PAPER_SPACE
0
ENDTAB
0
ENDSEC
0
SECTION
2
BLOCKS
0
BLOCK
5
20
100
AcDbEntity
100
AcDbBlockBegin
2
*MODEL_SPACE
0
ENDBLK
5
21
100
AcDbEntity
100
AcDbBlockEnd
0
BLOCK
5
1C
100
AcDbEntity
100
AcDbBlockBegin
2
*PAPER_SPACE
0
ENDBLK
5
1D
100
AcDbEntity
100
AcDbBlockEnd
0
ENDSEC
0
SECTION
2
ENTITIES
0
LINE
5
100
100
AcDbEntity
8
0
100
AcDbLine
10
-5.6682685994629614
20
-45.188021535170009
30
7.1054273576010019e-14
11
-5.6682685994629614
21
-55
31
7.1054273576010019e-14
0
LINE
5
101
100
AcDbEntity
8
0
100
AcDbLine
10
-5.6682685994629614
20
-55
30
7.1054273576010019e-14
11
-5.6682685994629614
21
-58.780610700945388
31
7.1054273576010019e-14
0
LINE
5
102
100
AcDbEntity
8
0
100
AcDbLine
10
-5.6682685994629614
20
-58.780610700945388
30
7.1054273576010019e-14
11
0
21
-58.780610700945388
31
7.1054273576010019e-14
0
LINE
5
103
100
AcDbEntity
8
0
100
AcDbLine
10
0
20
-58.780610700945388
30
7.1054273576010019e-14
11
0
21
-45
31
7.1054273576010019e-14
0
LINE
5
104
100
AcDbEntity
8
0
100
AcDbLine
10
25
20
-25
30
0
11
22.608689274064503
21
-33.442810840869299
31
0
0
LINE
5
105
100
AcDbEntity
8
0
100
AcDbLine
10
22.608689274064503
20
-33.442810840869299
30
0
11
19.096528888322904
21
-38.409755691614436
31
0
0
LINE
5
106
100
AcDbEntity
8
0
100
AcDbLine
10
19.096528888322904
20
-38.409755691614436
30
0
11
12.730738189166267
21
-42.75583243601659
31
0
0
LINE
5
107
100
AcDbEntity
8
0
100
AcDbLine
10
12.730738189166267
20
-42.75583243601659
30
0
11
5
21
-45
31
0
0
LINE
5
108
100
AcDbEntity
8
0
100
AcDbLine
10
5
20
-45
30
0
11
0
21
-45
31
7.1054273576010019e-14
0
LINE
5
109
100
AcDbEntity
8
0
100
AcDbLine
10
-30
20
-25
30
0
11
-28.018017440874353
21
-33.156169764775711
31
0
0
LINE
5
110
100
AcDbEntity
8
0
100
AcDbLine
10
-28.018017440874353
20
-33.156169764775711
30
0
11
-24.431269352474729
21
-38.409755691614436
31
0
0
LINE
5
111
100
AcDbEntity
8
0
100
AcDbLine
10
-24.431269352474729
20
-38.409755691614436
30
0
11
-21.263768853629806
21
-41.199917095908773
31
0
0
LINE
5
112
100
AcDbEntity
8
0
100
AcDbLine
10
-21.263768853629806
20
-41.199917095908773
30
0
11
-16.464697489008675
21
-43.713588136887722
31
0
0
LINE
5
113
100
AcDbEntity
8
0
100
AcDbLine
10
-16.464697489008675
20
-43.713588136887722
30
0
11
-11.84336950826242
21
-44.97042365737741
31
0
0
LINE
5
114
100
AcDbEntity
8
0
100
AcDbLine
10
-11.84336950826242
20
-44.97042365737741
30
0
11
-5.6682685994629614
21
-45.188021535170009
31
7.1054273576010019e-14
0
LINE
5
115
100
AcDbEntity
8
0
100
AcDbLine
10
-33.136194861187271
20
-2.6623904222984152
30
-2.3376095777034323
11
-18.136194861187267
21
-2.6623904222984152
31
-2.3376095777034323
0
LINE
5
116
100
AcDbEntity
8
0
100
AcDbLine
10
-18.136194861187267
20
-2.6623904222984152
30
-2.3376095777034323
11
-25.636194861187271
21
-17.476094007591882
31
-2.3376095777034323
0
LINE
5
117
100
AcDbEntity
8
0
100
AcDbLine
10
-25.636194861187271
20
-17.476094007591882
30
-2.3376095777034323
11
-33.136194861187271
21
-2.6623904222984152
31
-2.3376095777034323
0
LINE
5
118
100
AcDbEntity
8
0
100
AcDbLine
10
13.012347076771281
20
-2.7455188236496042
30
-2.2544811763503958
11
28.089736832751552
21
-2.7455188236496042
31
-2.2544811763503958
0
LINE
5
119
100
AcDbEntity
8
0
100
AcDbLine
10
28.089736832751552
20
-2.7455188236496042
30
-2.2544811763503958
11
20.589736832751555
21
-17.559222408943075
31
-2.2544811763503958
0
LINE
5
120
100
AcDbEntity
8
0
100
AcDbLine
10
20.589736832751555
20
-17.559222408943075
30
-2.2544811763503958
11
13.012347076771281
21
-2.7455188236496042
31
-2.2544811763503958
0
LINE
5
121
100
AcDbEntity
8
0
100
AcDbLine
10
-6.4301019293020207
20
8.258332479936854
30
-1.3360630255397155
11
0.93472110022842891
21
8.258332479936854
31
-1.3360630255397155
0
LINE
5
122
100
AcDbEntity
8
0
100
AcDbLine
10
0.93472110022842891
20
8.258332479936854
30
-1.3360630255397155
11
-2.939806888760581
21
1.3360630255397155
31
-1.3360630255397155
0
LINE
5
123
100
AcDbEntity
8
0
100
AcDbLine
10
-2.939806888760581
20
1.3360630255397155
30
-1.3360630255397155
11
-6.4301019293020207
21
8.258332479936854
31
-1.3360630255397155
0
LWPOLYLINE
5
124
100
AcDbEntity
8
0
100
AcDbPolyline
90
34
70
1
43
0.0
10
-35
20
25
10
-29.418470272281262
20
27.554320383209756
10
-25.486971189457634
20
29.353523958880992
10
-25.486971189457634
20
33.404017806200272
10
-25.486971189457634
20
35
10
-20
20
35
10
-16.63629135447524
20
35
10
-15
20
35
10
-15
20
32.238068107792088
10
-15
20
29.353523958880992
10
5
20
29.353523958880992
10
10
20
29.353523958880992
10
10
20
35
10
15
20
35
10
20
20
35
10
20
20
30
10
30
20
25
10
28.402464190277335
20
35
10
25
20
43.668121770455883
10
20.829576089832212
20
50.713964571760641
10
10.466676583959924
20
53.532301692282687
10
5
20
53.79870219026202
10
5
20
50
10
5
20
47.191043171108262
10
0
20
47.191043171108262
10
-5
20
47.191043171108262
10
-10
20
47.191043171108262
10
-10
20
53.532301692282687
10
-16.66065413264058
20
53.532301692282687
10
-19.537195748941752
20
53.391897773611703
10
-25.328231644201416
20
50.202773482535392
10
-28.742128921105561
20
44.238798398978219
10
-31.18718929496157
20
39.967352024149392
10
-33.056941345557348
20
35
0
LINE
5
125
100
AcDbEntity
8
0
100
AcDbLine
10
-61.664042640242954
20
-17.671725854532383
30
0
11
-61.664042640242954
21
40
31
0
0
LINE
5
126
100
AcDbEntity
8
0
100
AcDbLine
10
59.635045204080171
20
-18.36748253288167
30
0
11
59.635045204080171
21
43.410978729612566
31
0
0
LINE
5
127
100
AcDbEntity
8
0
100
AcDbLine
10
-48.896597688298385
20
69.150231604692607
30
0
11
-46.5258535579568
21
72.223575231567736
31
0
0
LINE
5
128
100
AcDbEntity
8
0
100
AcDbLine
10
-61.664042640242954
20
40
30
0
11
-60.094522220618352
21
51.862673703519135
31
0
0
LINE
5
129
100
AcDbEntity
8
0
100
AcDbLine
10
-51.613075337648326
20
-37.520403444767958
30
0
11
-55.370869419248606
21
-32.20608008996313
31
0
0
LINE
5
130
100
AcDbEntity
8
0
100
AcDbLine
10
-60.094522220618352
20
51.862673703519135
30
0
11
-55.416144046738168
21
60.698536630785469
31
0
0
LINE
5
131
100
AcDbEntity
8
0
100
AcDbLine
10
-47.357260353667016
20
-37.520403444767958
30
0
11
-44.550233449338506
21
-37.520403444767958
31
0
0
LINE
5
132
100
AcDbEntity
8
0
100
AcDbLine
10
45.093528979208521
20
-38.061277820084015
30
7.1054273576010019e-14
11
55.336011962686669
21
-27.852743237956851
31
0
0
LINE
5
133
100
AcDbEntity
8
0
100
AcDbLine
10
38.463566224950029
20
-38.061277820084015
30
7.1054273576010019e-14
11
45.093528979208521
21
-38.061277820084015
31
7.1054273576010019e-14
0
LINE
5
134
100
AcDbEntity
8
0
100
AcDbLine
10
39.660573680508691
20
72.223575231567736
30
0
11
-30
21
72.223575231567736
31
0
0
LINE
5
135
100
AcDbEntity
8
0
100
AcDbLine
10
-55.370869419248606
20
-32.20608008996313
30
0
11
-58.525001800993756
21
-27.745463298178681
31
0
0
LINE
5
136
100
AcDbEntity
8
0
100
AcDbLine
10
30
20
-30
30
7.1054273576010019e-14
11
34.693371803982942
21
-34.470287467394257
31
7.1054273576010019e-14
0
LINE
5
137
100
AcDbEntity
8
0
100
AcDbLine
10
59.635045204080171
20
43.410978729612566
30
0
11
57.86097393115309
21
51.478505750159798
31
0
0
LINE
5
138
100
AcDbEntity
8
0
100
AcDbLine
10
53.24296192725825
20
59.930200724066935
30
0
11
49.172351505368596
21
67.380063915068348
31
0
0
LINE
5
139
100
AcDbEntity
8
0
100
AcDbLine
10
57.86097393115309
20
51.478505750159798
30
0
11
53.24296192725825
21
59.930200724066935
31
0
0
LINE
5
140
100
AcDbEntity
8
0
100
AcDbLine
10
49.172351505368596
20
67.380063915068348
30
0
11
39.660573680508691
21
72.223575231567736
31
0
0
LINE
5
141
100
AcDbEntity
8
0
100
AcDbLine
10
-30.152901907783978
20
-24.970916968361223
30
0
11
-44.550233449338506
21
-37.520403444767958
31
0
0
LINE
5
142
100
AcDbEntity
8
0
100
AcDbLine
10
-47.357260353667016
20
-37.520403444767958
30
0
11
-51.613075337648326
21
-37.520403444767958
31
0
0
LINE
5
143
100
AcDbEntity
8
0
100
AcDbLine
10
55.336011962686669
20
-27.852743237956851
30
0
11
57.86097393115309
21
-22.281741294845432
31
0
0
LINE
5
144
100
AcDbEntity
8
0
100
AcDbLine
10
-58.525001800993756
20
-27.745463298178681
30
0
11
-61.664042640242954
21
-17.671725854532383
31
0
0
LINE
5
145
100
AcDbEntity
8
0
100
AcDbLine
10
24.719946609084182
20
-24.97091696836101
30
7.1054273576010019e-14
11
30
21
-30
31
7.1054273576010019e-14
0
LINE
5
146
100
AcDbEntity
8
0
100
AcDbLine
10
34.693371803982942
20
-34.470287467394257
30
7.1054273576010019e-14
11
38.463566224950029
21
-38.061277820084015
31
7.1054273576010019e-14
0
LINE
5
147
100
AcDbEntity
8
0
100
AcDbLine
10
57.86097393115309
20
-22.281741294845432
30
0
11
59.635045204080171
21
-18.36748253288167
31
0
0
LINE
5
148
100
AcDbEntity
8
0
100
AcDbLine
10
-46.5258535579568
20
72.223575231567736
30
0
11
-31.239492967523972
21
72.223575231567736
31
0
0
LINE
5
149
100
AcDbEntity
8
0
100
AcDbLine
10
-55.416144046738168
20
60.698536630785469
30
0
11
-48.896597688298385
21
69.150231604692607
31
0
0
ENDSEC
0
SECTION
2
OBJECTS
0
DICTIONARY
5
C
100
AcDbDictionary
3
ACAD_GROUP
350
D
3
ACAD_MLINESTYLE
350
17
0
DICTIONARY
5
D
100
AcDbDictionary
0
DICTIONARY
5
1A
330
C
100
AcDbDictionary
0
DICTIONARY
5
17
100
AcDbDictionary
0
ENDSEC
0
EOF
